# xmcd
#
# Track frame offsets: 
#        150
#        24629
#        39163
#        55239
#        67353
#        82577
#        95360
#        107505
#        123698
#        134220
#        149384
#        166035
#        180879
#        196101
#        209816
#        227154
#        236575
#        257057
#        270471
#        284510
#
# Disc length: 3970 seconds
#
# Revision: 1
# Processed by: cddbd v1.5.2PL0 Copyright (c) Steve Scherf et al.
# Submitted via: ExactAudioCopy v0.99pb5
#
DISCID=210f8014
DTITLE=Various Artist - 100 Hits - 70s Heart Throbs - 100 Ultimate Teen Idols
DTITLE=Various Artist - CD 1
DYEAR=2016
DGENRE=Pop
TTITLE0=Jacksons - Show you the way to go
TTITLE1=Bay City Rollers - Give a little love
TTITLE2=David Essex - Gonna make you a star
TTITLE3=Leif Garrett - The wanderer
TTITLE4=Showaddywaddy - Hey Rock and Roll
TTITLE5=Edison Lighthouse - Love grows (where my Rosemary goes)
TTITLE6=Lou Christie - I'm gonna make you mine
TTITLE7=Smokie - It's your life
TTITLE8=Loggins and Messina - Thinking of you
TTITLE9=Poco - You better think twice
TTITLE10=Boz Scaggs - Lido shuffle
TTITLE11=Argent - Hold your head up
TTITLE12=Nilsson - Without you
TTITLE13=Colin Blunstone - I don't believe in miracles
TTITLE14=Albert Hammond - It never rains in Southern California
TTITLE15=Bill Withers - Ain't no sunshine
TTITLE16=Eric Carmen - All by myself
TTITLE17=Middle Of The Road - Chirpy chirpy cheep cheep
TTITLE18=Dooleys - Love of my life
TTITLE19=Dawn - Knock three times
EXTD=
EXTT0=
EXTT1=
EXTT2=
EXTT3=
EXTT4=
EXTT5=
EXTT6=
EXTT7=
EXTT8=
EXTT9=
EXTT10=
EXTT11=
EXTT12=
EXTT13=
EXTT14=
EXTT15=
EXTT16=
EXTT17=
EXTT18=
EXTT19=
PLAYORDER=
